# xmcd
#
# Track frame offsets:
#	150
#	11766
#	25151
#	48254
#	54164
#	66142
#	73244
#	83034
#	95119
#	111109
#	124459
#	139307
#	164729
#	172914
#	187386
#
# Disc length: 2674 seconds
#
# Revision: 1
# Processed by: cddbd v1.5.2PL0 Copyright (c) Steve Scherf et al.
# Submitted via: audiograbber 1.83.01
#
DISCID=dd0a700f
DTITLE=Various Artist - Christmas Extraordinaire - LC8867
DYEAR=1900
DGENRE=xmas
TTITLE0=G.miller Singers Feat. Paula Kelly - Rudolph, The Red Nose Reindeer
TTITLE1=Ireen Sheer - The First Noel
TTITLE2=Girl Swingband - Medley
TTITLE3=The Anita Kerr Singers - God Rest Ye Merry Gentlemen
TTITLE4=Luciano Pavarotti - Oh Holy Night
TTITLE5=Low Rawls - Auld Lang Syne
TTITLE6=Helmut Zacharias - Jingle Bells
TTITLE7=Jose Carreras - Ave Maria
TTITLE8=The Anita Kerr Singers - Hark! The Herald Angels Sing
TTITLE9=Brook Benton - I Wish Every Day Could Be Like Christmas
TTITLE10=Mario Lanza - Silent Night, Holy Night
TTITLE11=Holiday Swing Orchestra - We Three Kings Of Orient Are
TTITLE12=Andy Williams - Carol Of The Bells
TTITLE13=Engelbert Humperdink - A Night To Remember
TTITLE14=Elvis Aaron Presley Jr. - Peace In The Valley
EXTD=
EXTT0=
EXTT1=
EXTT2=
EXTT3=
EXTT4=
EXTT5=
EXTT6=
EXTT7=
EXTT8=
EXTT9=
EXTT10=
EXTT11=
EXTT12=
EXTT13=
EXTT14=
PLAYORDER=
